<svg width="150" height="150" viewBox="0 0 150 150" xmlns="http://www.w3.org/2000/svg">
  <!-- Brain outline -->
  <path d="M75,20 C40,20 20,45 20,75 C20,105 40,130 75,130 C110,130 130,105 130,75 C130,45 110,20 75,20 Z" 
        fill="none" stroke="#7c3aed" stroke-width="2" opacity="0.8" />
  
  <!-- Neural network connections -->
  <g stroke="#06b6d4" stroke-width="1" opacity="0.6">
    <line x1="40" y1="50" x2="60" y2="40" />
    <line x1="40" y1="50" x2="60" y2="60" />
    <line x1="40" y1="50" x2="60" y2="80" />
    
    <line x1="40" y1="100" x2="60" y2="80" />
    <line x1="40" y1="100" x2="60" y2="100" />
    <line x1="40" y1="100" x2="60" y2="120" />
    
    <line x1="60" y1="40" x2="90" y2="30" />
    <line x1="60" y1="40" x2="90" y2="50" />
    
    <line x1="60" y1="60" x2="90" y2="50" />
    <line x1="60" y1="60" x2="90" y2="70" />
    
    <line x1="60" y1="80" x2="90" y2="70" />
    <line x1="60" y1="80" x2="90" y2="90" />
    
    <line x1="60" y1="100" x2="90" y2="90" />
    <line x1="60" y1="100" x2="90" y2="110" />
    
    <line x1="60" y1="120" x2="90" y2="110" />
    <line x1="60" y1="120" x2="90" y2="130" />
    
    <line x1="90" y1="30" x2="110" y2="50" />
    <line x1="90" y1="50" x2="110" y2="50" />
    <line x1="90" y1="70" x2="110" y2="50" />
    <line x1="90" y1="90" x2="110" y2="100" />
    <line x1="90" y1="110" x2="110" y2="100" />
    <line x1="90" y1="130" x2="110" y2="100" />
  </g>
  
  <!-- Neural nodes -->
  <g fill="#06b6d4" opacity="0.8">
    <circle cx="40" cy="50" r="3" />
    <circle cx="40" cy="100" r="3" />
    
    <circle cx="60" cy="40" r="3" />
    <circle cx="60" cy="60" r="3" />
    <circle cx="60" cy="80" r="3" />
    <circle cx="60" cy="100" r="3" />
    <circle cx="60" cy="120" r="3" />
    
    <circle cx="90" cy="30" r="3" />
    <circle cx="90" cy="50" r="3" />
    <circle cx="90" cy="70" r="3" />
    <circle cx="90" cy="90" r="3" />
    <circle cx="90" cy="110" r="3" />
    <circle cx="90" cy="130" r="3" />
    
    <circle cx="110" cy="50" r="3" />
    <circle cx="110" cy="100" r="3" />
  </g>
  
  <!-- Pulse animations (simulated here with gradient circles) -->
  <circle cx="75" cy="75" r="40" fill="url(#pulse-gradient)" opacity="0.3">
    <animate attributeName="r" values="30;40;30" dur="3s" repeatCount="indefinite" />
    <animate attributeName="opacity" values="0.2;0.4;0.2" dur="3s" repeatCount="indefinite" />
  </circle>
  
  <!-- Gradient definitions -->
  <defs>
    <radialGradient id="pulse-gradient" cx="50%" cy="50%" r="50%" fx="50%" fy="50%">
      <stop offset="0%" stop-color="#7c3aed" stop-opacity="0.8" />
      <stop offset="100%" stop-color="#06b6d4" stop-opacity="0" />
    </radialGradient>
  </defs>
</svg>
