<svg width="180" height="180" viewBox="0 0 180 180" xmlns="http://www.w3.org/2000/svg">
  <!-- Background Grid -->
  <g stroke="#ffffff" stroke-width="0.5" opacity="0.1">
    <!-- Horizontal lines -->
    <line x1="0" y1="0" x2="180" y2="0" />
    <line x1="0" y1="45" x2="180" y2="45" />
    <line x1="0" y1="90" x2="180" y2="90" />
    <line x1="0" y1="135" x2="180" y2="135" />
    <line x1="0" y1="180" x2="180" y2="180" />
    
    <!-- Vertical lines -->
    <line x1="0" y1="0" x2="0" y2="180" />
    <line x1="45" y1="0" x2="45" y2="180" />
    <line x1="90" y1="0" x2="90" y2="180" />
    <line x1="135" y1="0" x2="135" y2="180" />
    <line x1="180" y1="0" x2="180" y2="180" />
  </g>
  
  <!-- Data Flow Paths -->
  <g fill="none" stroke="#06b6d4" stroke-width="2" opacity="0.8">
    <path d="M20,20 L90,20 L90,60 L160,60" />
    <path d="M20,60 L50,60 L50,100 L160,100" />
    <path d="M20,100 L30,100 L30,140 L160,140" />
    <path d="M90,20 L90,160 L160,160" />
  </g>
  
  <!-- Data Nodes -->
  <g fill="#7c3aed" opacity="0.8">
    <circle cx="20" cy="20" r="5" />
    <circle cx="20" cy="60" r="5" />
    <circle cx="20" cy="100" r="5" />
    
    <circle cx="50" cy="60" r="4" />
    <circle cx="50" cy="100" r="4" />
    
    <circle cx="90" cy="20" r="5" />
    <circle cx="90" cy="60" r="4" />
    <circle cx="90" cy="100" r="4" />
    <circle cx="90" cy="160" r="4" />
    
    <circle cx="160" cy="60" r="5" />
    <circle cx="160" cy="100" r="5" />
    <circle cx="160" cy="140" r="5" />
    <circle cx="160" cy="160" r="5" />
  </g>
  
  <!-- Data Flow Animation (simulated with dashed lines) -->
  <g fill="none" stroke="#06b6d4" stroke-width="2" stroke-dasharray="4,4" opacity="0.6">
    <path d="M20,20 L90,20 L90,60 L160,60">
      <animate attributeName="stroke-dashoffset" from="0" to="16" dur="2s" repeatCount="indefinite" />
    </path>
    <path d="M20,60 L50,60 L50,100 L160,100">
      <animate attributeName="stroke-dashoffset" from="0" to="16" dur="3s" repeatCount="indefinite" />
    </path>
    <path d="M20,100 L30,100 L30,140 L160,140">
      <animate attributeName="stroke-dashoffset" from="0" to="16" dur="2.5s" repeatCount="indefinite" />
    </path>
    <path d="M90,20 L90,160 L160,160">
      <animate attributeName="stroke-dashoffset" from="0" to="16" dur="4s" repeatCount="indefinite" />
    </path>
  </g>
</svg>
