<svg width="500" height="200" viewBox="0 0 500 200" xmlns="http://www.w3.org/2000/svg">
  <!-- Background Grid -->
  <g stroke="#ffffff" stroke-width="0.5" opacity="0.2">
    <!-- Horizontal lines -->
    <line x1="0" y1="0" x2="500" y2="0" />
    <line x1="0" y1="40" x2="500" y2="40" />
    <line x1="0" y1="80" x2="500" y2="80" />
    <line x1="0" y1="120" x2="500" y2="120" />
    <line x1="0" y1="160" x2="500" y2="160" />
    <line x1="0" y1="200" x2="500" y2="200" />
    
    <!-- Vertical lines -->
    <line x1="0" y1="0" x2="0" y2="200" />
    <line x1="100" y1="0" x2="100" y2="200" />
    <line x1="200" y1="0" x2="200" y2="200" />
    <line x1="300" y1="0" x2="300" y2="200" />
    <line x1="400" y1="0" x2="400" y2="200" />
    <line x1="500" y1="0" x2="500" y2="200" />
  </g>
  
  <!-- Main Chart Line -->
  <path d="M0,180 C50,160 80,140 120,150 C160,160 180,120 220,100 C260,80 300,90 340,70 C380,50 420,60 460,30 C480,15 490,10 500,5" 
        fill="none" stroke="#06b6d4" stroke-width="3" stroke-linecap="round" />
  
  <!-- Area under the curve -->
  <path d="M0,180 C50,160 80,140 120,150 C160,160 180,120 220,100 C260,80 300,90 340,70 C380,50 420,60 460,30 C480,15 490,10 500,5 L500,200 L0,200 Z" 
        fill="url(#gradient)" opacity="0.3" />
  
  <!-- Secondary Chart Line -->
  <path d="M0,190 C40,180 70,170 100,160 C130,150 160,140 200,130 C240,120 270,110 300,100 C330,90 360,80 400,60 C440,40 470,30 500,20" 
        fill="none" stroke="#7c3aed" stroke-width="2" stroke-linecap="round" stroke-dasharray="5,5" />
  
  <!-- Data Points -->
  <circle cx="120" cy="150" r="4" fill="#06b6d4" />
  <circle cx="220" cy="100" r="4" fill="#06b6d4" />
  <circle cx="340" cy="70" r="4" fill="#06b6d4" />
  <circle cx="460" cy="30" r="4" fill="#06b6d4" />
  
  <!-- Gradient Definition -->
  <defs>
    <linearGradient id="gradient" x1="0%" y1="0%" x2="0%" y2="100%">
      <stop offset="0%" stop-color="#06b6d4" stop-opacity="0.5" />
      <stop offset="100%" stop-color="#06b6d4" stop-opacity="0" />
    </linearGradient>
  </defs>
</svg>
